<svg id="Capa_1" enable-background="new 0 0 512 512" viewBox="0 0 512 512" xmlns="http://www.w3.org/2000/svg" xmlns:xlink="http://www.w3.org/1999/xlink"><linearGradient id="lg1"><stop offset="0" stop-color="#fef0ae"/><stop offset="1" stop-color="#fac600"/></linearGradient><linearGradient id="SVGID_1_" gradientUnits="userSpaceOnUse" x1="256" x2="256" xlink:href="#lg1" y1="199.511" y2="284.806"/><linearGradient id="SVGID_00000154404011080069580360000009349256742867861152_" gradientUnits="userSpaceOnUse" x1="155.035" x2="155.035" xlink:href="#lg1" y1="212.179" y2="189.038"/><linearGradient id="SVGID_00000066500317848331700030000013547304288325013407_" gradientUnits="userSpaceOnUse" x1="356.624" x2="356.624" xlink:href="#lg1" y1="212.179" y2="189.038"/><linearGradient id="lg2"><stop offset="0" stop-color="#fe9738" stop-opacity="0"/><stop offset="1" stop-color="#fe9738"/></linearGradient><linearGradient id="SVGID_00000085233134263049060760000007904588866616492697_" gradientUnits="userSpaceOnUse" x1="264.653" x2="217.97" xlink:href="#lg2" y1="179.757" y2="113.851"/><linearGradient id="SVGID_00000104676955608279276020000010521766066984745112_" gradientUnits="userSpaceOnUse" x1="422.381" x2="224.567" xlink:href="#lg1" y1="525.725" y2="327.911"/><linearGradient id="SVGID_00000179620756606388717960000011990592806566336177_" gradientUnits="userSpaceOnUse" x1="237.264" x2="170.671" xlink:href="#lg2" y1="352.523" y2="313.391"/><linearGradient id="SVGID_00000127042851052489915540000007961303120581497480_" gradientUnits="userSpaceOnUse" x1="256" x2="256" xlink:href="#lg2" y1="454.979" y2="505.782"/><linearGradient id="SVGID_00000085230171154838072860000002919117182040340145_" gradientUnits="userSpaceOnUse" x1="380.893" x2="443.367" xlink:href="#lg2" y1="344.579" y2="344.579"/><linearGradient id="SVGID_00000006671565023273296990000011079763976215797635_" gradientUnits="userSpaceOnUse" x1="409.605" x2="357.772" xlink:href="#lg2" y1="245.464" y2="165.141"/><linearGradient id="SVGID_00000114047024347026844960000007619347818680331455_" gradientUnits="userSpaceOnUse" x1="182.111" x2="241.152" y1="21.393" y2="121.168"><stop offset="0" stop-color="#f5fbff"/><stop offset="1" stop-color="#dbd5ef"/></linearGradient><linearGradient id="lg3"><stop offset="0" stop-color="#dbd5ef" stop-opacity="0"/><stop offset=".2853" stop-color="#d9d2ee" stop-opacity=".285"/><stop offset=".4739" stop-color="#d4c9e9" stop-opacity=".474"/><stop offset=".6346" stop-color="#cbbae2" stop-opacity=".635"/><stop offset=".7795" stop-color="#bfa5d7" stop-opacity=".78"/><stop offset=".9126" stop-color="#af8aca" stop-opacity=".913"/><stop offset="1" stop-color="#a274bf"/></linearGradient><linearGradient id="SVGID_00000079482241890394285840000017495159513096975532_" gradientUnits="userSpaceOnUse" x1="312.114" x2="378.425" xlink:href="#lg3" y1="105.477" y2="105.477"/><linearGradient id="SVGID_00000088811597506230598920000012426110449004128439_" gradientUnits="userSpaceOnUse" x1="155.376" x2="155.376" xlink:href="#lg3" y1="163.207" y2="212.188"/><linearGradient id="SVGID_00000003102241667352815990000015024399210384144801_" gradientUnits="userSpaceOnUse" x1="356.624" x2="356.624" xlink:href="#lg3" y1="163.207" y2="212.188"/><linearGradient id="SVGID_00000055705323481232703990000002375630776476420760_" gradientUnits="userSpaceOnUse" x1="222.637" x2="286.866" y1="366.166" y2="366.166"><stop offset="0" stop-color="#5a5a5a"/><stop offset="1" stop-color="#444"/></linearGradient><linearGradient id="lg4"><stop offset="0" stop-color="#433f43" stop-opacity="0"/><stop offset="1" stop-color="#1a1a1a"/></linearGradient><linearGradient id="SVGID_00000157303619968975031740000010723921636784514183_" gradientUnits="userSpaceOnUse" x1="253.637" x2="213.819" xlink:href="#lg4" y1="366.177" y2="377.847"/><linearGradient id="SVGID_00000119802062069431171340000006403297071830500534_" gradientUnits="userSpaceOnUse" x1="240.113" x2="199.608" xlink:href="#lg4" y1="348.47" y2="315.517"/><linearGradient id="SVGID_00000090992462135172035370000010455934033778701715_" gradientUnits="userSpaceOnUse" x1="256" x2="256" xlink:href="#lg4" y1="318.361" y2="272.9"/><g><g><path d="m392.828 177.157h-273.656c-4.841 0-9.535 1.659-13.301 4.7l-9.99 8.068c-18.139 14.649-28.681 36.714-28.681 60.029v240.875c0 11.692 9.478 21.17 21.17 21.17h335.26c11.692 0 21.17-9.478 21.17-21.17v-240.875c0-23.315-10.542-45.38-28.681-60.028l-9.99-8.068c-3.766-3.042-8.46-4.701-13.301-4.701z" fill="url(#SVGID_1_)"/><g><ellipse cx="155.035" cy="202.411" fill="url(#SVGID_00000154404011080069580360000009349256742867861152_)" rx="31.216" ry="12.306"/><ellipse cx="356.624" cy="202.411" fill="url(#SVGID_00000066500317848331700030000013547304288325013407_)" rx="31.216" ry="12.306"/></g><path d="m444.8 490.83v-240.876c0-23.315-10.542-45.38-28.681-60.028l-9.99-8.068c-3.766-3.041-8.46-4.7-13.301-4.7h-228.367l-28.958 28.958 301.289 301.289c4.877-3.879 8.008-9.86 8.008-16.575z" fill="url(#SVGID_00000085233134263049060760000007904588866616492697_)"/><path d="m256 468.052c-18.754 0-34.012-15.258-34.012-34.012v-32.803c0-7.111-3.106-13.742-8.521-18.194-16.258-13.366-25.162-33.099-24.429-54.139.602-17.303 7.848-33.527 20.402-45.683 12.547-12.149 28.992-18.875 46.305-18.94h.255c36.946 0 67.004 30.057 67.004 67.003 0 20.107-8.918 38.971-24.466 51.756-5.418 4.455-8.526 11.087-8.526 18.198v32.803c0 18.753-15.258 34.011-34.012 34.011z" fill="url(#SVGID_00000104676955608279276020000010521766066984745112_)"/><path d="m256 468.052c-18.754 0-34.012-15.258-34.012-34.012v-32.803c0-7.111-3.106-13.742-8.521-18.194-16.258-13.366-25.162-33.099-24.429-54.139.602-17.303 7.848-33.527 20.402-45.683 12.547-12.149 28.992-18.875 46.305-18.94h.255c36.946 0 67.004 30.057 67.004 67.003 0 20.107-8.918 38.971-24.466 51.756-5.418 4.455-8.526 11.087-8.526 18.198v32.803c0 18.753-15.258 34.011-34.012 34.011z" fill="url(#SVGID_00000179620756606388717960000011990592806566336177_)"/><path d="m67.2 263.491v227.339c0 11.692 9.478 21.17 21.17 21.17h335.26c11.692 0 21.17-9.478 21.17-21.17v-227.339z" fill="url(#SVGID_00000127042851052489915540000007961303120581497480_)"/><path d="m416.12 189.926-9.99-8.068c-3.766-3.041-8.461-4.7-13.301-4.7h-129.997v334.842h160.798c11.692 0 21.17-9.478 21.17-21.17v-240.876c0-23.315-10.542-45.38-28.68-60.028z" fill="url(#SVGID_00000085230171154838072860000002919117182040340145_)"/><path d="m416.12 189.926-9.99-8.068c-3.766-3.041-8.461-4.7-13.301-4.7h-27.249l-28.58 28.579 107.8 107.8v-63.582c0-23.316-10.542-45.381-28.68-60.029z" fill="url(#SVGID_00000006671565023273296990000011079763976215797635_)"/></g><g><g><path d="m378.633 122.633v79.778c0 4.719-9.698 8.542-21.668 8.542-11.961 0-21.668-3.823-21.668-8.542v-79.778c0-43.732-35.575-79.297-79.297-79.297s-79.297 35.565-79.297 79.297v79.778c0 4.719-9.707 8.542-21.668 8.542-11.971 0-21.668-3.823-21.668-8.542v-79.778c0-67.624 55.008-122.633 122.633-122.633s122.633 55.009 122.633 122.633z" fill="url(#SVGID_00000114047024347026844960000007619347818680331455_)"/></g><path d="m256 0c-1.748 0-3.485.046-5.216.118v43.409c1.726-.113 3.462-.19 5.216-.19 43.722 0 79.297 35.565 79.297 79.297v79.778c0 4.719 9.707 8.542 21.668 8.542 11.971 0 21.668-3.823 21.668-8.542v-79.778c0-67.625-55.008-122.634-122.633-122.634z" fill="url(#SVGID_00000079482241890394285840000017495159513096975532_)"/><g><path d="m155.035 210.954c11.961 0 21.668-3.823 21.668-8.542v-79.778c0-3.468.248-6.877.682-10.229h-43.588c-.28 3.374-.43 6.784-.43 10.229v79.778c0 4.718 9.698 8.542 21.668 8.542z" fill="url(#SVGID_00000088811597506230598920000012426110449004128439_)"/><path d="m335.297 122.633v79.778c0 4.719 9.707 8.542 21.668 8.542 11.971 0 21.668-3.823 21.668-8.542v-79.778c0-3.445-.15-6.855-.43-10.229h-43.588c.433 3.352.682 6.761.682 10.229z" fill="url(#SVGID_00000003102241667352815990000015024399210384144801_)"/></g></g><g><path d="m308.558 331.283c0-29.094-23.64-52.667-52.759-52.558-28.036.105-51.348 22.662-52.324 50.681-.596 17.115 6.998 32.474 19.166 42.477 8.768 7.208 13.793 18.003 13.793 29.353v32.804c0 10.806 8.76 19.566 19.566 19.566s19.566-8.76 19.566-19.566v-32.804c0-11.352 5.028-22.147 13.797-29.356 11.719-9.635 19.195-24.24 19.195-40.597z" fill="url(#SVGID_00000055705323481232703990000002375630776476420760_)"/><path d="m308.558 331.283c0-29.094-23.64-52.667-52.759-52.558-28.036.105-51.348 22.662-52.324 50.681-.596 17.115 6.998 32.474 19.166 42.477 8.768 7.208 13.793 18.003 13.793 29.353v32.804c0 10.806 8.76 19.566 19.566 19.566s19.566-8.76 19.566-19.566v-32.804c0-11.352 5.028-22.147 13.797-29.356 11.719-9.635 19.195-24.24 19.195-40.597z" fill="url(#SVGID_00000157303619968975031740000010723921636784514183_)"/><path d="m308.558 331.283c0-29.094-23.64-52.667-52.759-52.558-28.036.105-51.348 22.662-52.324 50.681-.596 17.115 6.998 32.474 19.166 42.477 8.768 7.208 13.793 18.003 13.793 29.353v32.804c0 10.806 8.76 19.566 19.566 19.566s19.566-8.76 19.566-19.566v-32.804c0-11.352 5.028-22.147 13.797-29.356 11.719-9.635 19.195-24.24 19.195-40.597z" fill="url(#SVGID_00000119802062069431171340000006403297071830500534_)"/><path d="m308.558 331.283c0-29.094-23.64-52.667-52.759-52.558-28.036.105-51.348 22.662-52.324 50.681-.596 17.115 6.998 32.474 19.166 42.477 8.768 7.208 13.793 18.003 13.793 29.353v32.804c0 10.806 8.76 19.566 19.566 19.566s19.566-8.76 19.566-19.566v-32.804c0-11.352 5.028-22.147 13.797-29.356 11.719-9.635 19.195-24.24 19.195-40.597z" fill="url(#SVGID_00000090992462135172035370000010455934033778701715_)"/></g></g><g/><g/><g/><g/><g/><g/><g/><g/><g/><g/><g/><g/><g/><g/><g/></svg>